<svg width="73" height="18" viewBox="0 0 73 18" fill="none" xmlns="http://www.w3.org/2000/svg">
<path d="M1.76 15.4C1.89333 15.6 2.17333 15.78 2.6 15.94C3.04 16.1 3.5 16.18 3.98 16.18C4.74 16.18 5.3 16.0333 5.66 15.74C6.02 15.4467 6.2 15.04 6.2 14.52C6.2 14.16 6.08667 13.8467 5.86 13.58C5.63333 13.3133 5.31333 13.08 4.9 12.88C4.5 12.6667 3.92 12.4133 3.16 12.12C2.13333 11.7333 1.38 11.2733 0.9 10.74C0.433333 10.1933 0.2 9.48 0.2 8.6C0.2 8.01333 0.373333 7.5 0.72 7.06C1.08 6.62 1.56667 6.28 2.18 6.04C2.80667 5.78667 3.5 5.66 4.26 5.66C4.87333 5.66 5.40667 5.70667 5.86 5.8C6.32667 5.89333 6.7 5.98667 6.98 6.08C7.26 6.17333 7.44667 6.23333 7.54 6.26V8.74H6.32L5.92 7.26C5.84 7.1 5.62667 6.96667 5.28 6.86C4.93333 6.74 4.54667 6.68 4.12 6.68C3.52 6.68 3.03333 6.81333 2.66 7.08C2.3 7.34667 2.12 7.70667 2.12 8.16C2.12 8.56 2.21333 8.89333 2.4 9.16C2.6 9.41333 2.84667 9.62 3.14 9.78C3.43333 9.94 3.83333 10.1267 4.34 10.34L4.74 10.5C5.48667 10.7933 6.09333 11.0733 6.56 11.34C7.02667 11.6067 7.41333 11.96 7.72 12.4C8.04 12.8267 8.2 13.3533 8.2 13.98C8.2 14.9667 7.81333 15.7533 7.04 16.34C6.28 16.9267 5.23333 17.22 3.9 17.22C3.24667 17.22 2.56 17.1333 1.84 16.96C1.13333 16.7733 0.553333 16.5867 0.1 16.4V13.84H1.4L1.76 15.4ZM11.0777 2.08L9.39766 1.86V1L12.6577 0.619999H12.6977L13.1377 0.92V5.56L13.0577 7.26C13.4843 6.87333 14.071 6.50667 14.8177 6.16C15.5643 5.81333 16.3177 5.64 17.0777 5.64C17.9177 5.64 18.571 5.8 19.0377 6.12C19.5043 6.44 19.831 6.93333 20.0177 7.6C20.2043 8.25333 20.2977 9.14 20.2977 10.26V15.84L21.6977 16.02V17H16.9177V16.02L18.2177 15.84V10.24C18.2177 9.45333 18.1643 8.84 18.0577 8.4C17.951 7.94667 17.751 7.61333 17.4577 7.4C17.1643 7.17333 16.7243 7.06 16.1377 7.06C15.6577 7.06 15.1443 7.18 14.5977 7.42C14.051 7.66 13.571 7.94 13.1577 8.26V15.84L14.5377 16.02V17H9.87766V16.02L11.0777 15.86V2.08ZM32.2812 17.18C31.9079 17.18 31.6279 17.1067 31.4413 16.96C31.2679 16.8133 31.1813 16.5733 31.1813 16.24V15.56C30.7413 16 30.1879 16.3867 29.5213 16.72C28.8679 17.0533 28.2079 17.22 27.5413 17.22C26.3013 17.22 25.4213 16.8867 24.9013 16.22C24.3813 15.5533 24.1213 14.4533 24.1213 12.92V7.12L23.0013 6.8V5.92L25.8013 5.66H25.8213L26.2013 5.9V12.76C26.2013 13.5333 26.2546 14.14 26.3613 14.58C26.4813 15.0067 26.6813 15.3267 26.9613 15.54C27.2546 15.74 27.6746 15.84 28.2213 15.84C28.7546 15.84 29.2546 15.7267 29.7213 15.5C30.1879 15.2733 30.5946 15.0067 30.9413 14.7V7.12L29.5013 6.8V5.92L32.5413 5.66H32.5612L33.0213 5.9V15.98H34.2213L34.2013 16.88C33.8279 16.9733 33.5013 17.0467 33.2213 17.1C32.9546 17.1533 32.6413 17.18 32.2812 17.18ZM37.418 7.22H35.538V6.3L37.418 5.92V4.98C37.418 4.15333 37.6313 3.39333 38.058 2.7C38.498 2.00667 39.0646 1.46 39.758 1.06C40.4646 0.646665 41.2113 0.439999 41.998 0.439999C42.4513 0.439999 42.8446 0.499999 43.178 0.619999V2.62C43.058 2.51333 42.818 2.41333 42.458 2.32C42.1113 2.21333 41.7246 2.16 41.298 2.16C40.6713 2.16 40.2113 2.32667 39.918 2.66C39.638 2.98 39.498 3.54 39.498 4.34V5.92H42.258V7.22H39.498V15.86L41.718 16.02V17H35.718V16.02L37.418 15.84V7.22ZM45.418 7.22H43.538V6.3L45.418 5.92V4.98C45.418 4.15333 45.6313 3.39333 46.058 2.7C46.498 2.00667 47.0646 1.46 47.758 1.06C48.4646 0.646665 49.2113 0.439999 49.998 0.439999C50.4513 0.439999 50.8446 0.499999 51.178 0.619999V2.62C51.058 2.51333 50.818 2.41333 50.458 2.32C50.1113 2.21333 49.7246 2.16 49.298 2.16C48.6713 2.16 48.2113 2.32667 47.918 2.66C47.638 2.98 47.498 3.54 47.498 4.34V5.92H50.258V7.22H47.498V15.86L49.718 16.02V17H43.718V16.02L45.418 15.84V7.22ZM53.278 2.08L51.658 1.86V1L54.878 0.619999H54.918L55.358 0.92V15.86L57.058 16.02V17H51.658V16.02L53.278 15.84V2.08ZM63.3942 17.22C61.7809 17.22 60.5476 16.6933 59.6942 15.64C58.8542 14.5867 58.4342 13.18 58.4342 11.42C58.4342 10.26 58.6542 9.24 59.0942 8.36C59.5342 7.48 60.1476 6.8 60.9342 6.32C61.7342 5.84 62.6409 5.6 63.6542 5.6C64.8942 5.6 65.8542 5.94667 66.5342 6.64C67.2276 7.32 67.5942 8.3 67.6342 9.58C67.6342 10.3933 67.5876 11.0133 67.4942 11.44H60.6142C60.6409 12.76 60.9476 13.8267 61.5342 14.64C62.1209 15.44 62.9542 15.84 64.0342 15.84C64.5676 15.84 65.1209 15.7467 65.6942 15.56C66.2809 15.36 66.7342 15.1267 67.0542 14.86L67.4342 15.74C67.0476 16.14 66.4742 16.4867 65.7142 16.78C64.9542 17.0733 64.1809 17.22 63.3942 17.22ZM65.4342 10.38C65.4742 10.1 65.4942 9.81333 65.4942 9.52C65.4809 8.65333 65.2942 7.97333 64.9342 7.48C64.5876 6.97333 64.0342 6.72 63.2742 6.72C62.5009 6.72 61.8809 7 61.4142 7.56C60.9609 8.12 60.7009 9.06 60.6342 10.38H65.4342Z" fill="white"/>
<path d="M70.9931 17.2C70.6465 17.2 70.3465 17.08 70.0931 16.84C69.8398 16.6 69.7131 16.2933 69.7131 15.92C69.7131 15.5067 69.8598 15.16 70.1531 14.88C70.4598 14.6 70.8131 14.46 71.2131 14.46C71.6265 14.46 71.9398 14.5867 72.1531 14.84C72.3798 15.08 72.4931 15.38 72.4931 15.74C72.4931 16.18 72.3465 16.5333 72.0531 16.8C71.7598 17.0667 71.4065 17.2 70.9931 17.2Z" fill="#6E57E0"/>
</svg>
